<svg width="24" height="24" viewBox="0 0 24 24" fill="none" xmlns="http://www.w3.org/2000/svg">
<path d="M21.7491 14.5422L20.2819 13.2921C20.3513 12.8679 20.3872 12.4349 20.3872 12.0018C20.3872 11.5687 20.3513 11.1357 20.2819 10.7115L21.7491 9.46146C21.8598 9.36704 21.939 9.2413 21.9762 9.10094C22.0134 8.96058 22.0069 8.81225 21.9574 8.67569L21.9373 8.61765C21.5333 7.49263 20.9285 6.44972 20.152 5.53931L20.1116 5.49243C20.0174 5.38205 19.8919 5.3027 19.7515 5.26484C19.6112 5.22698 19.4626 5.2324 19.3254 5.28036L17.5042 5.9255C16.8322 5.37635 16.0818 4.94328 15.2709 4.63969L14.9192 2.74224C14.8927 2.59947 14.8232 2.46812 14.72 2.36565C14.6168 2.26317 14.4847 2.19443 14.3413 2.16854L14.2808 2.15738C13.1138 1.94754 11.8862 1.94754 10.7192 2.15738L10.6587 2.16854C10.5153 2.19443 10.3832 2.26317 10.28 2.36565C10.1768 2.46812 10.1073 2.59947 10.0808 2.74224L9.72684 4.64862C8.92241 4.95228 8.17329 5.38511 7.5092 5.92996L5.67461 5.28036C5.53744 5.23201 5.38876 5.22641 5.24832 5.26429C5.10788 5.30217 4.98233 5.38174 4.88836 5.49243L4.84803 5.53931C4.07241 6.45036 3.46767 7.4931 3.06273 8.61765L3.04257 8.67569C2.94176 8.95472 3.02464 9.26725 3.25089 9.46146L4.73603 10.7249C4.66659 11.1446 4.63299 11.5732 4.63299 11.9996C4.63299 12.4282 4.66659 12.8568 4.73603 13.2742L3.25089 14.5377C3.14022 14.6321 3.06102 14.7579 3.0238 14.8982C2.98659 15.0386 2.99313 15.1869 3.04257 15.3235L3.06273 15.3815C3.46817 16.5066 4.0685 17.5446 4.84803 18.4598L4.88836 18.5067C4.98256 18.6171 5.10811 18.6965 5.24847 18.7343C5.38883 18.7722 5.5374 18.7668 5.67461 18.7188L7.5092 18.0692C8.17673 18.6161 8.92266 19.0492 9.72684 19.3505L10.0808 21.2569C10.1073 21.3997 10.1768 21.531 10.28 21.6335C10.3832 21.736 10.5153 21.8047 10.6587 21.8306L10.7192 21.8418C11.897 22.0527 13.103 22.0527 14.2808 21.8418L14.3413 21.8306C14.4847 21.8047 14.6168 21.736 14.72 21.6335C14.8232 21.531 14.8927 21.3997 14.9192 21.2569L15.2709 19.3595C16.0815 19.0567 16.8361 18.6222 17.5042 18.0737L19.3254 18.7188C19.4626 18.7671 19.6112 18.7727 19.7517 18.7349C19.8921 18.697 20.0177 18.6174 20.1116 18.5067L20.152 18.4598C20.9315 17.5424 21.5318 16.5066 21.9373 15.3815L21.9574 15.3235C22.0582 15.0489 21.9754 14.7364 21.7491 14.5422V14.5422ZM18.6915 10.975C18.7475 11.312 18.7766 11.658 18.7766 12.004C18.7766 12.35 18.7475 12.6961 18.6915 13.0331L18.5436 13.9283L20.2169 15.3547C19.9633 15.9371 19.6431 16.4884 19.2627 16.9977L17.1839 16.2633L16.4805 16.8392C15.9452 17.2767 15.3493 17.6205 14.7042 17.8616L13.8507 18.1808L13.4498 20.3461C12.8171 20.4176 12.1784 20.4176 11.5457 20.3461L11.1448 18.1763L10.298 17.8527C9.65963 17.6116 9.06602 17.2678 8.53514 16.8325L7.83176 16.2543L5.73957 16.9955C5.35876 16.4843 5.04068 15.9329 4.78531 15.3525L6.47654 13.9127L6.33094 13.0197C6.27718 12.6871 6.24806 12.3434 6.24806 12.004C6.24806 11.6625 6.27494 11.321 6.33094 10.9883L6.47654 10.0954L4.78531 8.6556C5.03844 8.07297 5.35876 7.52382 5.73957 7.01262L7.83176 7.75375L8.53514 7.17558C9.06602 6.74028 9.65963 6.39651 10.298 6.15542L11.147 5.8362L11.548 3.66641C12.1774 3.59498 12.8203 3.59498 13.452 3.66641L13.853 5.83174L14.7064 6.15096C15.3493 6.39205 15.9474 6.73582 16.4828 7.17335L17.1862 7.74928L19.2649 7.01486C19.6457 7.52605 19.9638 8.07743 20.2192 8.65783L18.5459 10.0843L18.6915 10.975ZM12.5022 7.85197C10.3249 7.85197 8.55978 9.61102 8.55978 11.7808C8.55978 13.9506 10.3249 15.7097 12.5022 15.7097C14.6796 15.7097 16.4447 13.9506 16.4447 11.7808C16.4447 9.61102 14.6796 7.85197 12.5022 7.85197ZM14.2763 13.5488C14.0437 13.7813 13.7671 13.9658 13.4627 14.0914C13.1582 14.2171 12.8318 14.2815 12.5022 14.281C11.8325 14.281 11.203 14.0198 10.7281 13.5488C10.4948 13.3169 10.3097 13.0413 10.1836 12.7379C10.0575 12.4345 9.99289 12.1092 9.9934 11.7808C9.9934 11.1134 10.2555 10.4861 10.7281 10.0128C11.203 9.53959 11.8325 9.28064 12.5022 9.28064C13.172 9.28064 13.8015 9.53959 14.2763 10.0128C14.5097 10.2447 14.6948 10.5203 14.8209 10.8237C14.9469 11.1271 15.0116 11.4524 15.0111 11.7808C15.0111 12.4483 14.749 13.0755 14.2763 13.5488Z" fill="black"/>
</svg>
