<svg width="24" height="24" viewBox="0 0 24 24" fill="none" xmlns="http://www.w3.org/2000/svg">
<path d="M14.6251 18.3002C14.6251 19.0163 14.3486 19.7031 13.8563 20.2094C13.364 20.7157 12.6964 21.0002 12.0002 21.0002C11.304 21.0002 10.6363 20.7157 10.1441 20.2094C9.65179 19.7031 9.37523 19.0163 9.37523 18.3002M12.6311 5.70291L11.3483 5.70021C8.42238 5.69301 5.88229 8.13831 5.86217 11.1002V14.5112C5.86217 15.2222 5.77467 15.9161 5.39755 16.5074L5.14643 16.9016C4.76406 17.4992 5.17531 18.3002 5.86217 18.3002H18.1382C18.8251 18.3002 19.2354 17.4992 18.8539 16.9016L18.6028 16.5074C18.2266 15.9161 18.1382 15.2213 18.1382 14.5103V11.1011C18.1032 8.13831 15.557 5.71011 12.6311 5.70291Z" stroke="black" stroke-width="1.7" stroke-linecap="round" stroke-linejoin="round"/>
<path d="M12.0005 3C12.4646 3 12.9097 3.18964 13.2379 3.52721C13.5661 3.86477 13.7504 4.32261 13.7504 4.8V5.7H10.2505V4.8C10.2505 4.32261 10.4349 3.86477 10.763 3.52721C11.0912 3.18964 11.5363 3 12.0005 3Z" stroke="black" stroke-width="1.7" stroke-linecap="round" stroke-linejoin="round"/>
</svg>
