<svg width="24" height="24" viewBox="0 0 24 24" fill="none" xmlns="http://www.w3.org/2000/svg">
<path d="M7.91667 11.5C7.76196 11.5 7.61358 11.5626 7.50419 11.6739C7.39479 11.7853 7.33333 11.9363 7.33333 12.0938C7.33333 12.2512 7.39479 12.4022 7.50419 12.5136C7.61358 12.6249 7.76196 12.6875 7.91667 12.6875H16.0833C16.238 12.6875 16.3864 12.6249 16.4958 12.5136C16.6052 12.4022 16.6667 12.2512 16.6667 12.0938C16.6667 11.9363 16.6052 11.7853 16.4958 11.6739C16.3864 11.5626 16.238 11.5 16.0833 11.5H7.91667ZM7.91667 13.875C7.76196 13.875 7.61358 13.9376 7.50419 14.0489C7.39479 14.1603 7.33333 14.3113 7.33333 14.4688C7.33333 14.6262 7.39479 14.7772 7.50419 14.8886C7.61358 14.9999 7.76196 15.0625 7.91667 15.0625H16.0833C16.238 15.0625 16.3864 14.9999 16.4958 14.8886C16.6052 14.7772 16.6667 14.6262 16.6667 14.4688C16.6667 14.3113 16.6052 14.1603 16.4958 14.0489C16.3864 13.9376 16.238 13.875 16.0833 13.875H7.91667ZM7.91667 16.25C7.76196 16.25 7.61358 16.3126 7.50419 16.4239C7.39479 16.5353 7.33333 16.6863 7.33333 16.8438C7.33333 17.0012 7.39479 17.1522 7.50419 17.2636C7.61358 17.3749 7.76196 17.4375 7.91667 17.4375H16.0833C16.238 17.4375 16.3864 17.3749 16.4958 17.2636C16.6052 17.1522 16.6667 17.0012 16.6667 16.8438C16.6667 16.6863 16.6052 16.5353 16.4958 16.4239C16.3864 16.3126 16.238 16.25 16.0833 16.25H7.91667ZM5 4.375C5 3.74511 5.24583 3.14102 5.68342 2.69562C6.121 2.25022 6.71449 2 7.33333 2H12.6837C13.1476 2.00042 13.5925 2.18836 13.9203 2.5225L18.4878 7.17038C18.8157 7.5043 18.9999 7.95704 19 8.42913V18.625C19 19.2549 18.7542 19.859 18.3166 20.3044C17.879 20.7498 17.2855 21 16.6667 21H7.33333C6.71449 21 6.121 20.7498 5.68342 20.3044C5.24583 19.859 5 19.2549 5 18.625V4.375ZM7.33333 3.1875C7.02391 3.1875 6.72717 3.31261 6.50838 3.53531C6.28958 3.75801 6.16667 4.06006 6.16667 4.375V18.625C6.16667 18.9399 6.28958 19.242 6.50838 19.4647C6.72717 19.6874 7.02391 19.8125 7.33333 19.8125H16.6667C16.9761 19.8125 17.2728 19.6874 17.4916 19.4647C17.7104 19.242 17.8333 18.9399 17.8333 18.625V9.125H13.75C13.2859 9.125 12.8408 8.93733 12.5126 8.60328C12.1844 8.26924 12 7.81617 12 7.34375V3.1875H7.33333ZM13.75 7.9375H17.5918L13.1667 3.43331V7.34375C13.1667 7.50122 13.2281 7.65224 13.3375 7.76359C13.4469 7.87494 13.5953 7.9375 13.75 7.9375Z" fill="black"/>
</svg>
