<svg width="24" height="24" viewBox="0 0 24 24" fill="none" xmlns="http://www.w3.org/2000/svg">
<path d="M20.0002 8.83319C18.9597 8.8331 17.9454 8.50667 17.1002 7.89985C17.0529 8.02639 16.9683 8.13558 16.8576 8.21297C16.7469 8.29035 16.6152 8.33227 16.4802 8.33319H7.52016C7.34335 8.33319 7.17378 8.26295 7.04876 8.13792C6.92373 8.0129 6.8535 7.84333 6.8535 7.66652C6.8535 7.48971 6.92373 7.32014 7.04876 7.19512C7.17378 7.07009 7.34335 6.99985 7.52016 6.99985H16.1335C15.5885 6.32826 15.228 5.52614 15.0877 4.67267C14.9474 3.81921 15.0321 2.94391 15.3335 2.13319C14.2498 1.8218 13.1277 1.6647 12.0002 1.66652C6.12016 1.66652 1.3335 5.85319 1.3335 10.9999C1.3335 16.1465 6.12016 20.3332 12.0002 20.3332C13.1003 20.3319 14.195 20.1794 15.2535 19.8799L18.9402 22.2265C19.0408 22.2911 19.157 22.3274 19.2765 22.3317C19.396 22.3359 19.5144 22.3079 19.6194 22.2507C19.7244 22.1934 19.812 22.109 19.8731 22.0062C19.9343 21.9034 19.9666 21.7861 19.9668 21.6665V17.1799C20.801 16.3796 21.4666 15.4206 21.9246 14.3593C22.3826 13.298 22.6236 12.1557 22.6335 10.9999C22.6306 10.092 22.4774 9.19097 22.1802 8.33319C21.5009 8.66321 20.7554 8.8342 20.0002 8.83319V8.83319ZM14.5002 14.9999H9.50016C9.32335 14.9999 9.15378 14.9296 9.02876 14.8046C8.90373 14.6796 8.8335 14.51 8.8335 14.3332C8.8335 14.1564 8.90373 13.9868 9.02876 13.8618C9.15378 13.7368 9.32335 13.6665 9.50016 13.6665H14.5002C14.677 13.6665 14.8465 13.7368 14.9716 13.8618C15.0966 13.9868 15.1668 14.1564 15.1668 14.3332C15.1668 14.51 15.0966 14.6796 14.9716 14.8046C14.8465 14.9296 14.677 14.9999 14.5002 14.9999ZM16.6668 11.6665H7.3335C7.15669 11.6665 6.98712 11.5963 6.86209 11.4713C6.73707 11.3462 6.66683 11.1767 6.66683 10.9999C6.66683 10.823 6.73707 10.6535 6.86209 10.5284C6.98712 10.4034 7.15669 10.3332 7.3335 10.3332H16.6668C16.8436 10.3332 17.0132 10.4034 17.1382 10.5284C17.2633 10.6535 17.3335 10.823 17.3335 10.9999C17.3335 11.1767 17.2633 11.3462 17.1382 11.4713C17.0132 11.5963 16.8436 11.6665 16.6668 11.6665Z" fill="black"/>
<path d="M19.9998 7.16667C21.8408 7.16667 23.3332 5.67428 23.3332 3.83333C23.3332 1.99238 21.8408 0.5 19.9998 0.5C18.1589 0.5 16.6665 1.99238 16.6665 3.83333C16.6665 5.67428 18.1589 7.16667 19.9998 7.16667Z" fill="black"/>
</svg>
