<svg width="24" height="24" viewBox="0 0 24 24" fill="none" xmlns="http://www.w3.org/2000/svg">
<path d="M15 0V6H21L15 0ZM16.5 12H7.5V15H16.5V12ZM13.5 6V0H5.25C4.00734 0 3 1.00734 3 2.25V21.75C3 22.9922 4.00734 24 5.25 24H18.75C19.9927 24 21 22.9927 21 21.75V7.5H15.0422C14.1703 7.5 13.5 6.82969 13.5 6V6ZM6 3.375C6 3.17016 6.17016 3 6.375 3H10.125C10.3313 3 10.5 3.17016 10.5 3.375V4.125C10.5 4.33031 10.3313 4.5 10.125 4.5H6.375C6.17016 4.5 6 4.33031 6 4.125V3.375ZM6 6.375C6 6.16875 6.17016 6 6.375 6H10.125C10.3313 6 10.5 6.16875 10.5 6.375V7.125C10.5 7.33125 10.3313 7.5 10.125 7.5H6.375C6.17016 7.5 6 7.33125 6 7.125V6.375ZM18 20.625C18 20.8301 17.8301 21 17.625 21H13.875C13.6687 21 13.5 20.8313 13.5 20.625V19.875C13.5 19.6699 13.6699 19.5 13.875 19.5H17.625C17.8301 19.5 18 19.6699 18 19.875V20.625ZM18 11.25V15.75C18 16.166 17.666 16.5 17.25 16.5H6.75C6.33422 16.5 6 16.1672 6 15.75V11.25C6 10.8328 6.33422 10.5 6.75 10.5H17.25C17.6672 10.5 18 10.8328 18 11.25Z" fill="black"/>
</svg>
