<svg width="24" height="24" viewBox="0 0 24 24" fill="none" xmlns="http://www.w3.org/2000/svg">
<path d="M12 2C10.0222 2 8.08879 2.58649 6.4443 3.6853C4.79981 4.78412 3.51809 6.3459 2.76121 8.17316C2.00433 10.0004 1.8063 12.0111 2.19215 13.9509C2.578 15.8907 3.53041 17.6725 4.92894 19.0711C6.32746 20.4696 8.10929 21.422 10.0491 21.8078C11.9889 22.1937 13.9996 21.9957 15.8268 21.2388C17.6541 20.4819 19.2159 19.2002 20.3147 17.5557C21.4135 15.9112 22 13.9778 22 12C22 9.34783 20.9464 6.80429 19.0711 4.92893C17.1957 3.05357 14.6522 2 12 2ZM12 20.5714C10.3047 20.5714 8.64754 20.0687 7.23797 19.1269C5.82841 18.185 4.72979 16.8464 4.08104 15.2801C3.43229 13.7139 3.26254 11.9905 3.59327 10.3278C3.924 8.6651 4.74035 7.13782 5.93909 5.93908C7.13782 4.74035 8.66511 3.924 10.3278 3.59327C11.9905 3.26254 13.7139 3.43228 15.2801 4.08103C16.8464 4.72978 18.185 5.8284 19.1269 7.23797C20.0687 8.64753 20.5714 10.3047 20.5714 12C20.5714 14.2733 19.6684 16.4535 18.0609 18.0609C16.4535 19.6684 14.2733 20.5714 12 20.5714Z" fill="black"/>
<path d="M12 7.71428C11.1524 7.71428 10.3238 7.96564 9.61899 8.43656C8.91421 8.90748 8.3649 9.57681 8.04052 10.3599C7.71614 11.143 7.63127 12.0048 7.79664 12.8361C7.962 13.6674 8.37018 14.4311 8.96955 15.0305C9.56891 15.6298 10.3326 16.038 11.1639 16.2034C11.9952 16.3687 12.857 16.2839 13.6401 15.9595C14.4232 15.6351 15.0925 15.0858 15.5634 14.381C16.0344 13.6762 16.2857 12.8476 16.2857 12C16.2857 10.8634 15.8342 9.77327 15.0305 8.96954C14.2267 8.16581 13.1366 7.71428 12 7.71428Z" fill="black"/>
</svg>
