<svg width="24" height="24" viewBox="0 0 24 24" fill="none" xmlns="http://www.w3.org/2000/svg">
<path d="M6.58134 14.0488C6.3618 14.0488 6.14837 14.121 5.97396 14.2544L2.48221 16.924C2.28481 17.0749 2 16.9342 2 16.6857V2.92683C2 2.68102 2.10034 2.44528 2.27895 2.27146C2.45755 2.09765 2.69979 2 2.95238 2H17.2381C17.4907 2 17.7329 2.09765 17.9115 2.27146C18.0901 2.44528 18.1905 2.68102 18.1905 2.92683V13.5488C18.1905 13.8249 17.9666 14.0488 17.6905 14.0488H6.58134ZM5.31492 12.4007C5.48932 12.2674 5.70275 12.1951 5.92228 12.1951H15.2857C15.838 12.1951 16.2857 11.7474 16.2857 11.1951V4.85366C16.2857 4.30137 15.838 3.85366 15.2857 3.85366H4.90476C4.35248 3.85366 3.90476 4.30137 3.90476 4.85366V12.8718C3.90476 13.1203 4.18956 13.261 4.38697 13.1101L5.31492 12.4007ZM8.66667 16.2024C8.66667 16.0368 8.80098 15.9024 8.96667 15.9024H18.0777C18.2973 15.9024 18.5107 15.9747 18.6851 16.108L19.613 16.8174C19.8104 16.9684 20.0952 16.8276 20.0952 16.5791V7.56098H21.0476C21.3002 7.56098 21.5424 7.65862 21.7211 7.83244C21.8997 8.00625 22 8.24199 22 8.4878V20.393C22 20.6415 21.7152 20.7823 21.5178 20.6313L18.026 17.9617C17.8516 17.8283 17.6382 17.7561 17.4187 17.7561H9.61905C9.36646 17.7561 9.12422 17.6585 8.94561 17.4846C8.76701 17.3108 8.66667 17.0751 8.66667 16.8293V16.2024Z" fill="white"/>
</svg>
