<svg width="24" height="24" viewBox="0 0 24 24" fill="none" xmlns="http://www.w3.org/2000/svg">
<path d="M22 16.5C22 17.163 21.7366 17.7989 21.2678 18.2678C20.7989 18.7366 20.163 19 19.5 19L4.5 19C3.83696 19 3.20108 18.7366 2.73223 18.2678C2.26339 17.7989 2 17.163 2 16.5V6.5C2 5.83696 2.26339 5.20108 2.73223 4.73223C3.20108 4.26339 3.83696 4 4.5 4L19.5 4C20.163 4 20.7989 4.26339 21.2678 4.73223C21.7366 5.20108 22 5.83696 22 6.5V16.5ZM19.5 17.75C19.8315 17.75 20.1495 17.6183 20.3839 17.3839C20.6183 17.1495 20.75 16.8315 20.75 16.5V15.25L3.25 15.25V16.5C3.25 16.8315 3.3817 17.1495 3.61612 17.3839C3.85054 17.6183 4.16848 17.75 4.5 17.75L19.5 17.75ZM3.25 12.75L20.75 12.75V6.5C20.75 6.16848 20.6183 5.85054 20.3839 5.61612C20.1495 5.3817 19.8315 5.25 19.5 5.25L4.5 5.25C4.16848 5.25 3.85054 5.3817 3.61612 5.61612C3.3817 5.85054 3.25 6.16848 3.25 6.5V12.75Z" fill="white"/>
<path d="M19.5 9C19.5 9.33152 19.3683 9.64946 19.1339 9.88388C18.8995 10.1183 18.5815 10.25 18.25 10.25H17C16.6685 10.25 16.3505 10.1183 16.1161 9.88388C15.8817 9.64946 15.75 9.33152 15.75 9L15.75 7.75C15.75 7.41848 15.8817 7.10054 16.1161 6.86612C16.3505 6.6317 16.6685 6.5 17 6.5H18.25C18.5815 6.5 18.8995 6.6317 19.1339 6.86612C19.3683 7.10054 19.5 7.41848 19.5 7.75V9Z" fill="white"/>
</svg>
