<svg width="24" height="24" viewBox="0 0 24 24" fill="none" xmlns="http://www.w3.org/2000/svg">
<path d="M9.0076 20.7714V17.7047C9.00758 16.9246 9.67697 16.2908 10.5063 16.2856H13.5443C14.3776 16.2856 15.0532 16.9209 15.0532 17.7047V20.7809C15.053 21.4432 15.615 21.9845 16.319 22H18.3443C20.3633 22 22 20.4607 22 18.5618V9.83784C21.9892 9.09083 21.6163 8.38935 20.9873 7.93303L14.0608 2.6853C12.8473 1.77157 11.1223 1.77157 9.90886 2.6853L3.01266 7.94256C2.38132 8.39702 2.00778 9.09967 2 9.84736V18.5618C2 20.4607 3.63671 22 5.6557 22H7.68101C8.40248 22 8.98734 21.4499 8.98734 20.7714" stroke="white" stroke-width="2" stroke-linecap="round" stroke-linejoin="round"/>
</svg>
