<svg width="24" height="24" viewBox="0 0 24 24" fill="none" xmlns="http://www.w3.org/2000/svg">
<path d="M4.99051 2H13.9478C14.4757 2 14.982 2.21071 15.3553 2.58579C15.7286 2.96086 15.9383 3.46957 15.9383 4V5C15.9383 5.55228 15.4927 6 14.9431 6C14.3934 6 13.9478 5.55228 13.9478 5C13.9478 4.44772 13.5022 4 12.9526 4H5.98577C5.43611 4 4.99051 4.44772 4.99051 5V19C4.99051 19.5523 5.43611 20 5.98577 20H12.9526C13.5022 20 13.9478 19.5523 13.9478 19C13.9478 18.4477 14.3934 18 14.9431 18C15.4927 18 15.9383 18.4477 15.9383 19V20C15.9383 20.5304 15.7286 21.0391 15.3553 21.4142C14.982 21.7893 14.4757 22 13.9478 22H4.99051C4.4626 22 3.9563 21.7893 3.58301 21.4142C3.20971 21.0391 3 20.5304 3 20V4C3 3.46957 3.20971 2.96086 3.58301 2.58579C3.9563 2.21071 4.4626 2 4.99051 2Z" fill="white"/>
<path d="M15.7323 14.8843C15.3457 15.2743 15.3463 15.9051 15.7336 16.2943C16.1215 16.6841 16.7504 16.6841 17.1383 16.2943L20.7085 12.7071C21.0972 12.3166 21.0972 11.6834 20.7085 11.2929L17.1383 7.70568C16.7504 7.31594 16.1215 7.31594 15.7336 7.70568C15.3463 8.09489 15.3457 8.72572 15.7323 9.11568L17.6004 11H8.97154C8.42187 11 7.97628 11.4477 7.97628 12C7.97628 12.5523 8.42188 13 8.97154 13H17.6004L15.7323 14.8843Z" fill="white"/>
</svg>
