<svg width="24" height="24" viewBox="0 0 24 24" fill="none" xmlns="http://www.w3.org/2000/svg">
<path d="M21.6487 10.962C22.1171 11.582 22.1171 12.419 21.6487 13.038C20.1732 14.987 16.6331 19 12.5002 19C8.36716 19 4.82714 14.987 3.35163 13.038C3.12372 12.7411 3 12.3759 3 12C3 11.6241 3.12372 11.2589 3.35163 10.962C4.82714 9.013 8.36716 5 12.5002 5C16.6331 5 20.1732 9.013 21.6487 10.962V10.962Z" stroke="white" stroke-width="1.5" stroke-linecap="round" stroke-linejoin="round"/>
<path d="M12.5 15C14.1374 15 15.4648 13.6569 15.4648 12C15.4648 10.3431 14.1374 9 12.5 9C10.8626 9 9.53516 10.3431 9.53516 12C9.53516 13.6569 10.8626 15 12.5 15Z" stroke="white" stroke-width="1.5" stroke-linecap="round" stroke-linejoin="round"/>
</svg>
