<svg width="24" height="24" viewBox="0 0 24 24" fill="none" xmlns="http://www.w3.org/2000/svg">
<path fill-rule="evenodd" clip-rule="evenodd" d="M18.1667 10.5714C18.9181 10.5714 19.6388 10.8724 20.1701 11.4083C20.7015 11.9441 21 12.6708 21 13.4286V19.1429C21 19.9006 20.7015 20.6273 20.1701 21.1632C19.6388 21.699 18.9181 22 18.1667 22H6.83333C6.08189 22 5.36122 21.699 4.82986 21.1632C4.29851 20.6273 4 19.9006 4 19.1429V13.4286C4 12.6708 4.29851 11.9441 4.82986 11.4083C5.36122 10.8724 6.08189 10.5714 6.83333 10.5714V7.71429C6.83333 6.19876 7.43036 4.74531 8.49306 3.67368C9.55577 2.60204 10.9971 2 12.5 2C14.0029 2 15.4442 2.60204 16.5069 3.67368C17.5696 4.74531 18.1667 6.19876 18.1667 7.71429V10.5714ZM12.5 3.90476C13.5019 3.90476 14.4628 4.30612 15.1713 5.02055C15.8798 5.73497 16.2778 6.70394 16.2778 7.71429V10.5714H8.72222V7.71429C8.72222 6.70394 9.12024 5.73497 9.82871 5.02055C10.5372 4.30612 11.4981 3.90476 12.5 3.90476ZM18.1667 12.4762H6.83333C6.58285 12.4762 6.34263 12.5765 6.16551 12.7551C5.98839 12.9337 5.88889 13.176 5.88889 13.4286V19.1429C5.88889 19.3954 5.98839 19.6377 6.16551 19.8163C6.34263 19.9949 6.58285 20.0952 6.83333 20.0952H18.1667C18.4171 20.0952 18.6574 19.9949 18.8345 19.8163C19.0116 19.6377 19.1111 19.3954 19.1111 19.1429V13.4286C19.1111 13.176 19.0116 12.9337 18.8345 12.7551C18.6574 12.5765 18.4171 12.4762 18.1667 12.4762Z" fill="white"/>
</svg>
