<svg width="24" height="24" viewBox="0 0 24 24" fill="none" xmlns="http://www.w3.org/2000/svg">
<path d="M3.73926 9V19C3.73926 19.5304 3.93281 20.0391 4.27733 20.4142C4.62186 20.7893 5.08913 21 5.57636 21H18.4361C18.9233 21 19.3906 20.7893 19.7351 20.4142C20.0797 20.0391 20.2732 19.5304 20.2732 19V9" stroke="white" stroke-width="1.5"/>
<path d="M19.7997 3H16.1328L16.5921 8C16.5921 8 17.5106 9 18.8885 9C19.6117 9.00104 20.3105 8.71441 20.8533 8.194C20.9106 8.13563 20.9534 8.0623 20.9775 7.98094C21.0016 7.89958 21.0063 7.81287 20.991 7.729L20.3425 3.5C20.3209 3.36029 20.2544 3.23345 20.1551 3.14194C20.0557 3.05042 19.9298 3.00014 19.7997 3V3Z" stroke="white" stroke-width="1.5"/>
<path d="M16.133 3L16.5923 8C16.5923 8 15.6737 9 14.2959 9C12.9181 9 11.9995 8 11.9995 8V3H16.133Z" stroke="white" stroke-width="1.5"/>
<path d="M11.9995 3V8C11.9995 8 11.081 9 9.70312 9C8.32529 9 7.40674 8 7.40674 8L7.86602 3H11.9995Z" stroke="white" stroke-width="1.5"/>
<path d="M7.86599 3H4.20005C4.06961 2.99995 3.94338 3.05026 3.84381 3.142C3.74424 3.23373 3.67779 3.36094 3.65626 3.501L3.00868 7.73C2.99355 7.81387 2.99825 7.90055 3.02236 7.98189C3.04646 8.06324 3.08917 8.13657 3.14647 8.195C3.44775 8.485 4.12105 9.001 5.11033 9.001C6.48816 9.001 7.40672 8.001 7.40672 8.001L7.86599 3.001V3Z" stroke="white" stroke-width="1.5"/>
</svg>
