<svg width="24" height="24" viewBox="0 0 24 24" fill="none" xmlns="http://www.w3.org/2000/svg">
<path d="M20.5714 5H3.42857C3.04969 5 2.68633 5.1475 2.41842 5.41005C2.15051 5.6726 2 6.0287 2 6.4V17.6C2 17.9713 2.15051 18.3274 2.41842 18.5899C2.68633 18.8525 3.04969 19 3.42857 19H20.5714C20.9503 19 21.3137 18.8525 21.5816 18.5899C21.8495 18.3274 22 17.9713 22 17.6V6.4C22 6.0287 21.8495 5.6726 21.5816 5.41005C21.3137 5.1475 20.9503 5 20.5714 5ZM19 6.4L12 11.146L5 6.4H19ZM3.42857 17.6V7.037L11.5929 12.574C11.7124 12.6553 11.8545 12.6988 12 12.6988C12.1455 12.6988 12.2876 12.6553 12.4071 12.574L20.5714 7.037V17.6H3.42857Z" fill="white"/>
</svg>
