<svg width="24" height="24" viewBox="0 0 24 24" fill="none" xmlns="http://www.w3.org/2000/svg">
<path d="M5 19.0053C5 19.5576 5.44772 20.0053 6 20.0053H18C18.5523 20.0053 19 19.5576 19 19.0053V18.6395C19 16.4959 16.69 15 12 15C7.31 15 5 16.4959 5 18.6395V19.0053ZM12 13C18.66 13 21 16.382 21 18.6395V21C21 21.5523 20.5523 22 20 22H4C3.44772 22 3 21.5523 3 21V18.6395C3 16.382 5.34 13 12 13Z" fill="white"/>
<path d="M17 7C17 9.76142 14.7614 12 12 12C9.23858 12 7 9.76142 7 7C7 4.23858 9.23858 2 12 2C14.7614 2 17 4.23858 17 7ZM9 7C9 8.63967 10.3603 9.96888 12 9.96888C13.6397 9.96888 14.9689 8.63967 14.9689 7C14.9689 5.36033 13.6397 4.03112 12 4.03112C10.3603 4.03112 9 5.36033 9 7Z" fill="white"/>
</svg>
