<svg width="24" height="24" viewBox="0 0 24 24" fill="none" xmlns="http://www.w3.org/2000/svg">
<path d="M2 6.5C2 5.83696 2.26339 5.20107 2.73223 4.73223C3.20107 4.26339 3.83696 4 4.5 4H19.5C20.163 4 20.7989 4.26339 21.2678 4.73223C21.7366 5.20107 22 5.83696 22 6.5V16.5C22 17.163 21.7366 17.7989 21.2678 18.2678C20.7989 18.7366 20.163 19 19.5 19H4.5C3.83696 19 3.20107 18.7366 2.73223 18.2678C2.26339 17.7989 2 17.163 2 16.5V6.5ZM4.5 5.25C4.16848 5.25 3.85054 5.3817 3.61612 5.61612C3.3817 5.85054 3.25 6.16848 3.25 6.5V7.75H20.75V6.5C20.75 6.16848 20.6183 5.85054 20.3839 5.61612C20.1495 5.3817 19.8315 5.25 19.5 5.25H4.5ZM20.75 10.25H3.25V16.5C3.25 16.8315 3.3817 17.1495 3.61612 17.3839C3.85054 17.6183 4.16848 17.75 4.5 17.75H19.5C19.8315 17.75 20.1495 17.6183 20.3839 17.3839C20.6183 17.1495 20.75 16.8315 20.75 16.5V10.25Z" fill="white"/>
<path d="M4.5 14C4.5 13.6685 4.6317 13.3505 4.86612 13.1161C5.10054 12.8817 5.41848 12.75 5.75 12.75H7C7.33152 12.75 7.64946 12.8817 7.88388 13.1161C8.1183 13.3505 8.25 13.6685 8.25 14V15.25C8.25 15.5815 8.1183 15.8995 7.88388 16.1339C7.64946 16.3683 7.33152 16.5 7 16.5H5.75C5.41848 16.5 5.10054 16.3683 4.86612 16.1339C4.6317 15.8995 4.5 15.5815 4.5 15.25V14Z" fill="white"/>
</svg>
