<svg width="24" height="24" viewBox="0 0 24 24" fill="none" xmlns="http://www.w3.org/2000/svg">
<path d="M8.3375 0.829219C8.59062 0.321 9.11094 0 9.67813 0H15.3219C15.8891 0 16.4094 0.321 16.6625 0.829219L17 1.5H21.5C22.3297 1.5 23 2.17172 23 3C23 3.82828 22.3297 4.5 21.5 4.5H3.5C2.67172 4.5 2 3.82828 2 3C2 2.17172 2.67172 1.5 3.5 1.5H8L8.3375 0.829219ZM20.5062 21.8484C20.4312 23.0766 19.4516 24 18.2609 24H6.73906C5.55078 24 4.56734 23.0766 4.49328 21.8484L3.45781 6H21.5L20.5062 21.8484Z" fill="#AAAAAA"/>
</svg>
