<svg width="24" height="24" viewBox="0 0 24 24" fill="none" xmlns="http://www.w3.org/2000/svg">
<path d="M19.9241 9.92643C19.9998 9.74857 20.0196 9.55284 19.981 9.36403C19.9424 9.17522 19.847 9.00179 19.7071 8.86571L15.3949 4.66928C15.012 4.29674 14.4022 4.29674 14.0194 4.66928C13.6215 5.05645 13.6215 5.69559 14.0194 6.08276L16.5861 8.58058H4.97326C4.43581 8.58058 4.00012 9.01627 4.00012 9.55372C4.00012 10.0912 4.43581 10.5269 4.97326 10.5269H19.0001C19.1979 10.5269 19.3912 10.4699 19.5557 10.363C19.7202 10.2561 19.8484 10.1042 19.9241 9.92643ZM4.07612 13.0736C4.00041 13.2514 3.98062 13.4472 4.01925 13.636C4.05787 13.8248 4.15318 13.9982 4.29312 14.1343L8.60536 18.3307C8.98819 18.7033 9.59804 18.7033 9.98087 18.3307C10.3787 17.9435 10.3787 17.3044 9.98087 16.9172L7.41412 14.4194H19.027C19.5644 14.4194 20.0001 13.9837 20.0001 13.4463C20.0001 12.9088 19.5644 12.4731 19.027 12.4731H5.00012C4.80232 12.473 4.60892 12.5299 4.44443 12.6368C4.27993 12.7437 4.15175 12.8957 4.07612 13.0736Z" fill="#AAAAAA"/>
</svg>
