<svg width="24" height="24" viewBox="0 0 24 24" fill="none" xmlns="http://www.w3.org/2000/svg">
<path d="M6.85687 17.5712V20.1425C6.85687 20.4996 6.73187 20.8032 6.48188 21.0532C6.23189 21.3032 5.92834 21.4282 5.57121 21.4282H1.28566C0.928535 21.4282 0.624975 21.3032 0.374985 21.0532C0.124995 20.8032 0 20.4996 0 20.1425V17.5712C0 17.2141 0.124995 16.9105 0.374985 16.6605C0.624975 16.4105 0.928535 16.2855 1.28566 16.2855H5.57121C5.92834 16.2855 6.23189 16.4105 6.48188 16.6605C6.73187 16.9105 6.85687 17.2141 6.85687 17.5712ZM6.85687 10.7143V13.2856C6.85687 13.6428 6.73187 13.9463 6.48188 14.1963C6.23189 14.4463 5.92834 14.5713 5.57121 14.5713H1.28566C0.928535 14.5713 0.624975 14.4463 0.374985 14.1963C0.124995 13.9463 0 13.6428 0 13.2856V10.7143C0 10.3572 0.124995 10.0536 0.374985 9.80363C0.624975 9.55364 0.928535 9.42865 1.28566 9.42865H5.57121C5.92834 9.42865 6.23189 9.55364 6.48188 9.80363C6.73187 10.0536 6.85687 10.3572 6.85687 10.7143ZM23.999 17.5712V20.1425C23.999 20.4996 23.8741 20.8032 23.6241 21.0532C23.3741 21.3032 23.0705 21.4282 22.7134 21.4282H9.85675C9.49962 21.4282 9.19606 21.3032 8.94607 21.0532C8.69608 20.8032 8.57109 20.4996 8.57109 20.1425V17.5712C8.57109 17.2141 8.69608 16.9105 8.94607 16.6605C9.19606 16.4105 9.49962 16.2855 9.85675 16.2855H22.7134C23.0705 16.2855 23.3741 16.4105 23.6241 16.6605C23.8741 16.9105 23.999 17.2141 23.999 17.5712ZM6.85687 3.85744V6.42877C6.85687 6.7859 6.73187 7.08946 6.48188 7.33945C6.23189 7.58944 5.92834 7.71443 5.57121 7.71443H1.28566C0.928535 7.71443 0.624975 7.58944 0.374985 7.33945C0.124995 7.08946 0 6.7859 0 6.42877V3.85744C0 3.50031 0.124995 3.19675 0.374985 2.94676C0.624975 2.69677 0.928535 2.57178 1.28566 2.57178H5.57121C5.92834 2.57178 6.23189 2.69677 6.48188 2.94676C6.73187 3.19675 6.85687 3.50031 6.85687 3.85744ZM23.999 10.7143V13.2856C23.999 13.6428 23.8741 13.9463 23.6241 14.1963C23.3741 14.4463 23.0705 14.5713 22.7134 14.5713H9.85675C9.49962 14.5713 9.19606 14.4463 8.94607 14.1963C8.69608 13.9463 8.57109 13.6428 8.57109 13.2856V10.7143C8.57109 10.3572 8.69608 10.0536 8.94607 9.80363C9.19606 9.55364 9.49962 9.42865 9.85675 9.42865H22.7134C23.0705 9.42865 23.3741 9.55364 23.6241 9.80363C23.8741 10.0536 23.999 10.3572 23.999 10.7143ZM23.999 3.85744V6.42877C23.999 6.7859 23.8741 7.08946 23.6241 7.33945C23.3741 7.58944 23.0705 7.71443 22.7134 7.71443H9.85675C9.49962 7.71443 9.19606 7.58944 8.94607 7.33945C8.69608 7.08946 8.57109 6.7859 8.57109 6.42877V3.85744C8.57109 3.50031 8.69608 3.19675 8.94607 2.94676C9.19606 2.69677 9.49962 2.57178 9.85675 2.57178H22.7134C23.0705 2.57178 23.3741 2.69677 23.6241 2.94676C23.8741 3.19675 23.999 3.50031 23.999 3.85744Z" fill="#AAAAAA"/>
</svg>
